<svg width="144" height="144" viewBox="0 0 144 144" fill="none" xmlns="http://www.w3.org/2000/svg">
<circle opacity="0.9" cx="72" cy="72" r="72" fill="#F6C800"/>
<path d="M65.2039 122.334C66.8002 123.953 68.9738 124.872 71.2473 124.89C73.5208 124.907 75.7083 124.022 77.3292 122.427L109.944 90.3262C111.565 88.7292 112.486 86.5532 112.504 84.2772C112.521 82.0011 111.634 79.8113 110.037 78.1895C108.44 76.5678 106.264 75.6469 103.988 75.6294C101.712 75.612 99.5218 76.4994 97.9 78.0965L80.0511 95.6681L80.557 29.6942C80.5744 27.4188 79.6873 25.2297 78.0907 23.6085C76.4941 21.9872 74.3189 21.0666 72.0436 21.0492C69.7682 21.0317 67.5792 21.9189 65.9579 23.5155C64.3367 25.112 63.4161 27.2872 63.3986 29.5626L62.8927 95.5365L45.321 77.6933C44.5303 76.8903 43.589 76.2509 42.5511 75.8116C41.5132 75.3724 40.399 75.1418 39.272 75.1332C38.145 75.1245 37.0273 75.338 35.9828 75.7613C34.9383 76.1846 33.9874 76.8094 33.1844 77.6002C32.3813 78.391 31.742 79.3322 31.3027 80.3701C30.8634 81.408 30.6329 82.5223 30.6242 83.6493C30.6156 84.7763 30.829 85.894 31.2523 86.9385C31.6756 87.983 32.3005 88.9339 33.0913 89.7369L65.2039 122.334Z" fill="#2B4C5F"/>
</svg>
