<svg width="80" height="80" viewBox="0 0 80 80" fill="none" xmlns="http://www.w3.org/2000/svg">
<path d="M40.004 28C36.8214 28 33.7692 29.2643 31.5187 31.5147C29.2683 33.7652 28.004 36.8174 28.004 40C28.004 43.1826 29.2683 46.2348 31.5187 48.4853C33.7692 50.7357 36.8214 52 40.004 52C43.1866 52 46.2388 50.7357 48.4893 48.4853C50.7397 46.2348 52.004 43.1826 52.004 40C52.004 36.8174 50.7397 33.7652 48.4893 31.5147C46.2388 29.2643 43.1866 28 40.004 28ZM40.004 20C45.3083 20 50.3954 22.1071 54.1461 25.8579C57.8969 29.6086 60.004 34.6957 60.004 40C60.004 45.3043 57.8969 50.3914 54.1461 54.1421C50.3954 57.8929 45.3083 60 40.004 60C34.6997 60 29.6126 57.8929 25.8619 54.1421C22.1111 50.3914 20.004 45.3043 20.004 40C20.004 34.6957 22.1111 29.6086 25.8619 25.8579C29.6126 22.1071 34.6997 20 40.004 20ZM66.004 19C66.004 20.3261 65.4772 21.5979 64.5395 22.5355C63.6019 23.4732 62.3301 24 61.004 24C59.6779 24 58.4061 23.4732 57.4685 22.5355C56.5308 21.5979 56.004 20.3261 56.004 19C56.004 17.6739 56.5308 16.4021 57.4685 15.4645C58.4061 14.5268 59.6779 14 61.004 14C62.3301 14 63.6019 14.5268 64.5395 15.4645C65.4772 16.4021 66.004 17.6739 66.004 19ZM40.004 8C30.108 8 28.492 8.028 23.888 8.232C20.752 8.38 18.648 8.8 16.696 9.56C15.0625 10.1598 13.5857 11.121 12.376 12.372C11.124 13.5816 10.1614 15.0583 9.56 16.692C8.8 18.652 8.38 20.752 8.236 23.884C8.028 28.3 8 29.844 8 40C8 49.9 8.028 51.512 8.232 56.116C8.38 59.248 8.8 61.356 9.556 63.304C10.236 65.044 11.036 66.296 12.364 67.624C13.712 68.968 14.964 69.772 16.684 70.436C18.66 71.2 20.764 71.624 23.884 71.768C28.3 71.976 29.844 72 40 72C49.9 72 51.512 71.972 56.116 71.768C59.244 71.62 61.348 71.2 63.304 70.444C64.9361 69.8413 66.4122 68.8804 67.624 67.632C68.972 66.288 69.776 65.036 70.44 63.312C71.2 61.344 71.624 59.24 71.768 56.112C71.976 51.7 72 50.152 72 40C72 30.104 71.972 28.488 71.768 23.884C71.62 20.756 71.196 18.644 70.44 16.692C69.8371 15.0601 68.8762 13.5839 67.628 12.372C66.4189 11.1194 64.942 10.1567 63.308 9.556C61.348 8.796 59.244 8.376 56.116 8.232C51.704 8.024 50.16 8 40 8M40 0C50.868 0 52.224 0.0399998 56.492 0.24C60.748 0.44 63.652 1.108 66.2 2.1C68.84 3.116 71.064 4.492 73.288 6.712C75.322 8.71158 76.8958 11.1304 77.9 13.8C78.888 16.348 79.56 19.252 79.76 23.512C79.948 27.776 80 29.132 80 40C80 50.868 79.96 52.224 79.76 56.488C79.56 60.748 78.888 63.648 77.9 66.2C76.8986 68.871 75.3244 71.2904 73.288 73.288C71.2878 75.3213 68.8692 76.895 66.2 77.9C63.652 78.888 60.748 79.56 56.492 79.76C52.224 79.948 50.868 80 40 80C29.132 80 27.776 79.96 23.508 79.76C19.252 79.56 16.352 78.888 13.8 77.9C11.1293 76.8979 8.71011 75.3238 6.712 73.288C4.67773 71.2887 3.10384 68.8698 2.1 66.2C1.108 63.652 0.44 60.748 0.24 56.488C0.0479998 52.224 0 50.868 0 40C0 29.132 0.0399998 27.776 0.24 23.512C0.44 19.252 1.108 16.352 2.1 13.8C3.10094 11.1287 4.67521 8.70928 6.712 6.712C8.71068 4.67692 11.1297 3.10292 13.8 2.1C16.348 1.108 19.248 0.44 23.508 0.24C27.78 0.0519998 29.136 0 40.004 0" fill="#2B4C5F"/>
</svg>
