<svg width="76" height="85" viewBox="0 0 76 85" fill="none" xmlns="http://www.w3.org/2000/svg">
<path d="M48.551 7.0844C48.551 5.43627 47.8963 3.85564 46.7309 2.69024C45.5655 1.52483 43.9849 0.870117 42.3367 0.870117C40.6886 0.870117 39.108 1.52483 37.9426 2.69024C36.7772 3.85564 36.1224 5.43627 36.1224 7.0844V60.403C36.1237 62.7299 35.4348 65.0049 34.1429 66.9402C32.8511 68.8755 31.0143 70.3843 28.8648 71.2756C26.7154 72.1669 24.35 72.4008 22.0676 71.9476C19.7853 71.4944 17.6886 70.3745 16.0428 68.7295C14.397 67.0846 13.276 64.9885 12.8216 62.7065C12.3672 60.4244 12.5998 58.0588 13.49 55.9089C14.3802 53.759 15.888 51.9214 17.8226 50.6285C19.7573 49.3356 22.0319 48.6455 24.3588 48.6455C26.0069 48.6455 27.5876 47.9908 28.753 46.8254C29.9184 45.66 30.5731 44.0794 30.5731 42.4313C30.5731 40.7831 29.9184 39.2025 28.753 38.0371C27.5876 36.8717 26.0069 36.217 24.3588 36.217C19.574 36.217 14.8967 37.6358 10.9183 40.2941C6.93993 42.9524 3.83915 46.7307 2.0081 51.1512C0.177047 55.5718 -0.302039 60.436 0.631423 65.1289C1.56488 69.8217 3.86897 74.1323 7.25231 77.5157C10.6357 80.899 14.9463 83.2031 19.6391 84.1366C24.332 85.07 29.1962 84.5909 33.6167 82.7599C38.0373 80.9288 41.8156 77.828 44.4739 73.8497C47.1322 69.8713 48.551 65.194 48.551 60.4092V32.8302C54.3573 37.4523 61.5622 39.9635 68.9836 39.9518C70.6317 39.9518 72.2123 39.297 73.3777 38.1316C74.5431 36.9662 75.1979 35.3856 75.1979 33.7375C75.1979 32.0893 74.5431 30.5087 73.3777 29.3433C72.2123 28.1779 70.6317 27.5232 68.9836 27.5232C63.5645 27.5232 58.3674 25.3705 54.5356 21.5386C50.7037 17.7068 48.551 12.5097 48.551 7.09062V7.0844Z" fill="#2B4C5F"/>
</svg>
